HIERARCHY
ROOT Hips
{
	OFFSET 0.000000 0.000000 0.000000
	CHANNELS 6 Xposition Yposition Zposition Yrotation Xrotation Zrotation 
	JOINT LeftHip
	{
		OFFSET 0.088514 -0.001098 0.000122
		CHANNELS 3 Yrotation Xrotation Zrotation
		JOINT LeftKnee
		{
			OFFSET 0.000000 -0.377351 -0.000006
			CHANNELS 3 Yrotation Xrotation Zrotation
			JOINT LeftAnkle
			{
				OFFSET 0.000000 -0.409320 0.000162
				CHANNELS 3 Yrotation Xrotation Zrotation
				JOINT LeftToe
				{
					OFFSET 0.000000 -0.080722 0.175165
					CHANNELS 3 Yrotation Xrotation Zrotation
					End Site
					{
						OFFSET 0.000000 0.000000 0.000000
					}
				}
			}
		}
	}
	JOINT RightHip
	{
		OFFSET -0.088514 -0.001076 0.000120
		CHANNELS 3 Yrotation Xrotation Zrotation
		JOINT RightKnee
		{
			OFFSET 0.000000 -0.377351 -0.000006
			CHANNELS 3 Yrotation Xrotation Zrotation
			JOINT RightAnkle
			{
				OFFSET 0.000000 -0.409320 0.000162
				CHANNELS 3 Yrotation Xrotation Zrotation
				JOINT RightToe
				{
					OFFSET 0.000000 -0.080722 0.175165
					CHANNELS 3 Yrotation Xrotation Zrotation
					End Site
					{
						OFFSET 0.000000 0.000000 0.000000
					}
				}
			}
		}
	}
	JOINT Chest
	{
		OFFSET 0.000000 0.109830 -0.012203
		CHANNELS 3 Yrotation Xrotation Zrotation
		JOINT Chest3
		{
			OFFSET 0.000000 0.219648 -0.010220
			CHANNELS 3 Yrotation Xrotation Zrotation
			JOINT Chest4
			{
				OFFSET 0.000000 0.104914 0.000445
				CHANNELS 3 Yrotation Xrotation Zrotation
				JOINT Neck
				{
					OFFSET 0.000000 0.146306 0.000000
					CHANNELS 3 Yrotation Xrotation Zrotation
					JOINT Head
					{
						OFFSET 0.000000 0.086907 -0.000103
						CHANNELS 3 Yrotation Xrotation Zrotation
						End Site
						{
							OFFSET 0.000000 0.000000 0.000000
						}
					}
				}
				JOINT LeftCollar
				{
					OFFSET 0.030074 0.081747 0.000000
					CHANNELS 3 Yrotation Xrotation Zrotation
					JOINT LeftShoulder
					{
						OFFSET 0.131781 0.000000 0.000000
						CHANNELS 3 Yrotation Xrotation Zrotation
						JOINT LeftElbow
						{
							OFFSET 0.252146 0.000000 0.000000
							CHANNELS 3 Yrotation Xrotation Zrotation
							JOINT LeftWrist
							{
								OFFSET 0.244457 0.000000 0.000079
								CHANNELS 3 Yrotation Xrotation Zrotation
								End Site
								{
									OFFSET 0.000000 0.000000 0.000000
								}
							}
						}
					}
				}
				JOINT RightCollar
				{
					OFFSET -0.030074 0.081747 0.000000
					CHANNELS 3 Yrotation Xrotation Zrotation
					JOINT RightShoulder
					{
						OFFSET -0.131781 0.000000 0.000000
						CHANNELS 3 Yrotation Xrotation Zrotation
						JOINT RightElbow
						{
							OFFSET -0.252146 0.000000 0.000000
							CHANNELS 3 Yrotation Xrotation Zrotation
							JOINT RightWrist
							{
								OFFSET -0.244457 0.000000 0.000079
								CHANNELS 3 Yrotation Xrotation Zrotation
								End Site
								{
									OFFSET 0.000000 0.000000 0.000000
								}
							}
						}
					}
				}
			}
		}
	}
}
MOTION
Frames: 14
Frame Time: 0.016667
0.000000 0.000000 0.000000 335.032429 358.314942 3.812213 19.002712 2.105923 7.325170 2.424736 18.328813 0.525886 20.182706 345.455183 343.110821 357.919806 359.185774 2.555738 8.573162 339.181497 353.409030 3.812802 26.259414 0.294612 4.979825 355.009156 7.259798 359.224783 357.635056 357.582682 0.203182 1.431765 0.113211 359.732078 355.788786 0.327584 352.274083 5.730901 0.083596 7.020084 14.607028 358.067445 16.077010 351.927439 354.591533 355.757612 2.218184 357.608151 305.970407 314.096708 341.012044 321.153827 304.015002 8.828358 6.527250 3.624736 7.549911 359.172331 0.075732 4.781546 358.249816 348.420640 73.673769 90.161543 329.870213 31.851360 353.232278 1.680547 342.801250 
0.000000 0.000000 0.000000 335.886430 358.524331 3.720996 20.153089 359.396784 8.954076 2.996143 22.681900 0.578547 21.419940 344.734138 342.709844 357.957357 359.368394 0.793124 7.769173 338.026196 353.222237 3.686410 27.745458 0.580466 5.028588 354.248948 8.024201 358.803831 357.869496 356.642995 0.290689 1.234823 359.686894 359.807819 355.612045 359.952123 352.053254 5.636879 359.921529 6.496192 14.503833 358.325043 14.810145 351.674936 355.259796 355.576661 2.260308 357.881728 304.682517 314.369353 341.300051 321.414672 304.484188 8.458183 6.802128 3.462698 7.905876 359.017300 0.160710 4.963086 357.824573 348.820498 73.830917 90.355014 329.610600 31.721413 353.560952 1.704076 342.590860 
0.000000 0.000000 0.000000 336.856088 358.650801 3.523261 20.464616 356.606421 10.681733 3.865317 26.755129 0.785543 22.753491 344.482712 343.955159 359.054473 359.693166 358.121559 6.967467 336.737489 353.150904 3.552795 29.594129 0.851551 5.105733 353.260460 8.777256 358.452318 358.021096 355.692777 0.373926 1.137890 359.242369 359.889046 355.525104 359.563581 351.744137 5.616085 359.744023 5.925542 14.275252 358.566194 13.461331 351.313099 355.935718 355.357999 2.054660 358.254173 303.254499 314.504163 341.757233 322.170164 304.917498 7.975116 7.079601 3.364947 7.948560 358.870230 0.178016 5.144056 357.434290 349.103184 73.897268 90.687625 329.147346 31.461004 353.836122 1.701152 342.497892 
0.000000 0.000000 0.000000 337.898583 358.729172 3.234493 20.165520 353.802381 12.433238 5.043713 30.514086 1.517053 24.276847 344.614676 345.881471 359.818294 0.423402 355.275292 6.079909 335.322749 353.134582 3.625004 31.721546 1.322701 5.126845 352.107136 9.409156 358.285616 358.127903 354.821860 0.439178 1.106133 358.790785 359.985510 355.495009 359.164224 351.465674 5.599737 359.564782 5.272696 13.999512 358.804292 12.046077 350.860154 356.670044 355.083887 1.880949 358.652533 301.470071 314.582161 342.449991 323.165895 305.272231 7.504837 7.163677 3.224639 7.676801 358.723428 0.268486 5.308555 357.056697 349.231140 73.708887 90.982385 328.404769 31.317428 354.205959 1.712183 342.348540 
0.000000 0.000000 0.000000 338.864950 358.807780 2.890634 19.489908 351.557559 13.985688 6.399692 32.898662 2.869733 24.861140 345.273155 347.497985 0.536691 1.393427 353.668665 5.183148 333.939879 353.191690 3.932508 33.766906 1.927255 4.977342 351.058119 9.890927 358.312045 358.165733 354.191935 0.497416 1.073283 358.357537 0.081625 355.465459 358.780402 351.379656 5.557023 359.400551 4.614819 13.776087 359.029177 10.518561 350.362427 357.505572 354.811925 1.692108 359.023870 299.648775 314.593945 342.889921 324.109473 305.648379 7.140713 7.090764 2.988120 7.247188 358.548939 0.398193 5.445879 356.672816 349.329005 73.355065 91.238424 327.623663 31.257807 354.666921 1.667251 342.098576 
0.000000 0.000000 0.000000 339.672226 358.901498 2.478208 18.480642 349.786045 15.679329 6.845231 34.286405 3.742121 24.406937 346.203977 348.091381 1.461906 2.211010 354.016623 4.325332 332.632441 353.358384 4.208631 35.673969 2.487130 4.869957 350.077231 10.282163 358.435946 358.216467 353.754489 0.553255 1.003634 357.961984 0.168495 355.406589 358.431558 351.240023 5.514046 359.174386 4.124413 13.582953 359.233436 9.139371 349.889387 358.387901 354.581931 1.434404 359.373212 298.266589 314.529211 342.835142 324.454583 305.998112 7.157062 7.143927 2.696992 7.267480 358.418105 0.673069 5.617684 356.451481 349.196900 72.985975 91.352782 326.817429 31.214170 355.027162 1.645634 341.855050 
0.000000 0.000000 0.000000 340.400543 358.996116 2.009219 17.232134 348.344485 17.405968 6.874637 34.975666 4.481083 23.308690 347.318856 348.211539 1.696916 2.849430 355.123926 3.484237 331.422763 353.596488 4.467220 37.406841 3.022415 4.775484 349.206405 10.611460 358.650063 358.276732 353.487779 0.609096 0.919172 357.572037 0.253819 355.336777 358.089931 351.034567 5.523296 358.993222 3.723529 13.389838 359.407148 8.090428 349.414262 359.145725 354.397590 1.107878 359.711976 297.248930 314.383199 342.383527 324.506828 306.317024 7.289414 7.191268 2.316062 8.068991 358.318149 0.901906 5.746141 356.326083 348.997537 72.667823 91.356065 326.014059 31.153879 355.229355 1.550129 341.667916 
0.000000 0.000000 0.000000 341.140929 359.093730 1.558595 16.196914 347.086097 18.979246 7.049614 35.146577 5.272506 22.345246 348.710879 348.527801 0.099599 3.227843 355.921188 2.713180 330.182139 353.821422 4.651027 39.158301 3.459593 4.656961 348.534076 10.843328 358.954996 358.218830 353.516037 0.666923 0.835717 357.174238 0.340907 355.267963 357.742708 350.845042 5.564000 358.844951 3.345230 13.223428 359.581682 7.395366 348.926364 359.729226 354.230599 0.796390 0.068659 296.276565 314.222752 341.887235 324.810908 306.598325 7.225881 7.179897 1.906759 9.339080 358.211426 1.079371 5.864285 356.160387 348.837255 72.348055 91.431885 325.235900 31.081455 355.292950 1.286889 341.503739 
0.000000 0.000000 0.000000 341.915073 359.208454 1.154719 15.438464 346.002423 20.178813 7.907810 34.608782 6.357186 21.831063 350.589211 349.800405 356.992334 3.277789 355.546046 2.087879 328.843915 353.968445 4.735278 40.976999 3.799885 4.474013 348.172400 10.984554 359.279267 357.958253 353.829580 0.730033 0.736828 356.760524 0.431547 355.185104 357.382255 350.681024 5.580995 358.701714 2.991775 13.121583 359.768814 6.970841 348.501765 0.168886 354.025696 0.509586 0.389852 295.342256 314.140138 341.345836 325.346234 306.832461 6.909693 7.341059 1.618110 10.668838 358.116926 1.262320 5.989688 356.072292 348.612156 72.051698 91.535317 324.536753 30.920467 355.281219 0.951712 341.249806 
0.000000 0.000000 0.000000 342.696803 359.325256 0.769119 14.878958 344.890748 21.309584 8.724255 33.900448 7.199019 21.550827 352.518697 351.406173 354.125308 3.120046 354.590040 1.581477 327.443194 354.073472 4.733823 42.845990 4.055307 4.240612 348.009848 11.013008 359.507190 357.582400 354.348590 0.793416 0.644709 356.343681 0.520844 355.107309 357.019056 350.529118 5.585859 358.568282 2.666400 13.060271 359.956541 6.696864 348.154443 0.473770 353.824283 0.347205 0.667103 294.431332 314.030690 340.843636 326.023084 307.284097 6.392329 7.771591 1.199120 11.596122 358.033341 1.463902 6.100132 356.038059 348.338781 71.772976 91.667132 323.909140 30.704920 355.381593 0.689469 340.920033 
0.000000 0.000000 0.000000 343.514113 359.404531 0.392447 14.640306 343.603950 22.395040 9.153793 33.474445 7.827330 21.018641 354.024978 351.959847 352.944936 3.011344 354.237844 1.188772 326.047100 354.106149 4.630652 44.714513 4.248606 3.943187 347.915988 10.881328 359.615601 357.202822 355.061585 0.844561 0.636965 355.947021 0.604037 355.102064 356.674082 350.365259 5.640828 358.393921 2.283761 12.970818 0.133102 6.522829 347.762375 0.704209 353.589836 0.128689 0.977212 293.322349 314.017332 340.619766 326.784673 307.754737 5.848721 8.290359 0.894003 12.069269 357.942115 1.634282 6.225043 356.001906 347.989878 71.530127 91.835018 323.339170 30.503439 355.742340 0.639538 340.654509 
0.000000 0.000000 0.000000 344.420145 359.451780 0.020447 14.927400 341.812812 23.462993 8.705451 33.790603 8.166248 20.062916 354.850111 350.334429 353.692443 3.276095 355.498293 0.917692 324.624885 354.075393 4.354933 46.634722 4.306529 3.537266 347.865936 10.560809 359.659087 356.819149 355.980972 0.882212 0.752032 355.575299 0.681028 355.201110 356.350680 350.191849 5.707303 358.222011 1.852355 12.844795 0.324249 6.286663 347.330885 0.887627 353.401939 359.846688 1.327379 291.947613 314.025377 340.648098 327.548247 308.706889 5.354138 8.840727 0.383311 12.388270 357.843629 1.796840 6.349275 355.978395 347.597182 71.247541 92.144001 322.686410 30.167392 356.246181 0.701497 340.475677 
0.000000 0.000000 0.000000 345.368576 359.462592 359.655897 15.494400 339.520639 24.521616 7.605518 34.938380 8.198437 19.009717 355.098601 347.509963 355.411366 3.556067 357.499418 0.720412 323.197119 354.046323 3.887218 48.615934 4.117607 3.073850 347.830061 10.172687 359.604780 356.395314 356.973788 0.908468 0.954818 355.231237 0.750783 355.374451 356.050982 349.972864 5.773290 358.047724 1.437276 12.706872 0.520721 5.846318 346.917779 1.119854 353.279537 359.600055 1.693674 290.462439 314.022620 340.820832 328.121570 310.033623 4.983558 9.388957 359.876229 12.907527 357.734075 1.897453 6.481345 356.035308 347.182668 71.001372 92.578247 322.046338 29.681099 356.723468 0.710029 340.313108 
0.000000 0.000000 0.000000 346.249835 359.382466 359.298443 15.726963 337.407796 25.418528 6.582069 36.313154 8.132827 18.264935 355.167960 345.330231 356.948249 3.425639 358.469906 0.567515 321.904828 353.945317 3.417511 50.589020 3.929798 2.638063 347.670751 9.755624 359.401079 355.950018 357.889282 0.920818 1.217381 354.938124 0.809697 355.599920 355.796709 349.769886 5.831525 357.882259 1.053745 12.583499 0.678964 5.085749 346.552481 1.427289 353.141684 359.475328 1.988877 289.117878 313.903400 340.930876 328.271106 311.367096 5.074805 9.889245 359.695857 13.464258 357.636483 1.958721 6.608553 356.155845 346.726740 70.833592 92.991027 321.475329 29.154094 357.122698 0.691189 340.140513 
